<mxfile host="app.diagrams.net" agent="Mozilla/5.0 (Windows NT 10.0; Win64; x64) AppleWebKit/537.36 (KHTML, like Gecko) Chrome/130.0.0.0 Safari/537.36" version="24.8.3">
  <diagram name="Page-1" id="Qf3wjmnG2n0iniY1Bj8l">
    <mxGraphModel dx="880" dy="468" grid="1" gridSize="10" guides="1" tooltips="1" connect="1" arrows="1" fold="1" page="1" pageScale="1" pageWidth="3300" pageHeight="4681" math="0" shadow="0">
      <root>
        <mxCell id="0" />
        <mxCell id="1" parent="0" />
        <mxCell id="KljDA6x7uNK7xaySjdWJ-14" value="" style="rounded=0;whiteSpace=wrap;html=1;" parent="1" vertex="1">
          <mxGeometry x="50" y="120" width="610" height="340" as="geometry" />
        </mxCell>
        <mxCell id="KljDA6x7uNK7xaySjdWJ-15" style="edgeStyle=orthogonalEdgeStyle;rounded=0;orthogonalLoop=1;jettySize=auto;html=1;entryX=0.5;entryY=0;entryDx=0;entryDy=0;" parent="1" source="KljDA6x7uNK7xaySjdWJ-16" target="KljDA6x7uNK7xaySjdWJ-18" edge="1">
          <mxGeometry relative="1" as="geometry" />
        </mxCell>
        <mxCell id="KljDA6x7uNK7xaySjdWJ-16" value="&lt;font style=&quot;font-size: 16px;&quot;&gt;Temporaire&lt;/font&gt;" style="html=1;align=center;verticalAlign=top;rounded=1;absoluteArcSize=1;arcSize=10;dashed=0;whiteSpace=wrap;" parent="1" vertex="1">
          <mxGeometry x="347" y="195" width="140" height="40" as="geometry" />
        </mxCell>
        <mxCell id="KljDA6x7uNK7xaySjdWJ-17" style="edgeStyle=orthogonalEdgeStyle;rounded=0;orthogonalLoop=1;jettySize=auto;html=1;entryX=1;entryY=0.5;entryDx=0;entryDy=0;" parent="1" source="KljDA6x7uNK7xaySjdWJ-18" target="KljDA6x7uNK7xaySjdWJ-21" edge="1">
          <mxGeometry relative="1" as="geometry" />
        </mxCell>
        <mxCell id="KljDA6x7uNK7xaySjdWJ-18" value="&lt;font style=&quot;font-size: 16px;&quot;&gt;Globale&lt;/font&gt;" style="html=1;align=center;verticalAlign=top;rounded=1;absoluteArcSize=1;arcSize=10;dashed=0;whiteSpace=wrap;" parent="1" vertex="1">
          <mxGeometry x="347" y="370" width="140" height="40" as="geometry" />
        </mxCell>
        <mxCell id="KljDA6x7uNK7xaySjdWJ-19" style="edgeStyle=orthogonalEdgeStyle;rounded=0;orthogonalLoop=1;jettySize=auto;html=1;entryX=0;entryY=0.5;entryDx=0;entryDy=0;" parent="1" source="KljDA6x7uNK7xaySjdWJ-20" target="KljDA6x7uNK7xaySjdWJ-16" edge="1">
          <mxGeometry relative="1" as="geometry" />
        </mxCell>
        <mxCell id="KljDA6x7uNK7xaySjdWJ-20" value="" style="ellipse;html=1;shape=endState;fillColor=strokeColor;" parent="1" vertex="1">
          <mxGeometry x="147" y="200" width="30" height="30" as="geometry" />
        </mxCell>
        <mxCell id="KljDA6x7uNK7xaySjdWJ-21" value="" style="shape=sumEllipse;perimeter=ellipsePerimeter;html=1;backgroundOutline=1;" parent="1" vertex="1">
          <mxGeometry x="147" y="375" width="30" height="30" as="geometry" />
        </mxCell>
        <mxCell id="KljDA6x7uNK7xaySjdWJ-22" value="&lt;font style=&quot;font-size: 15px;&quot;&gt;Diagramme d&#39;Ã©tat transition d&#39;une instruction&lt;/font&gt;" style="shape=umlFrame;whiteSpace=wrap;html=1;pointerEvents=0;width=230;height=30;" parent="1" vertex="1">
          <mxGeometry x="70" y="140" width="570" height="300" as="geometry" />
        </mxCell>
        <mxCell id="KljDA6x7uNK7xaySjdWJ-23" value="&lt;font style=&quot;font-size: 15px;&quot;&gt;Validation de l&#39;instruction&lt;/font&gt;" style="text;align=center;fontStyle=1;verticalAlign=middle;spacingLeft=3;spacingRight=3;strokeColor=none;rotatable=0;points=[[0,0.5],[1,0.5]];portConstraint=eastwest;html=1;" parent="1" vertex="1">
          <mxGeometry x="430" y="290" width="170" height="26" as="geometry" />
        </mxCell>
      </root>
    </mxGraphModel>
  </diagram>
</mxfile>
